
<svg id="Layer_3" data-name="Layer 3" xmlns="http://www.w3.org/2000/svg" xmlns:xlink="http://www.w3.org/1999/xlink" viewBox="0 0 1500 1500">
  <defs>
    <style>
      .cls-1 {
        fill: #333;
      }

      .cls-2, .cls-3 {
        stroke: #333;
        stroke-miterlimit: 10;
        stroke-width: 11.49px;
      }

      .cls-2, .cls-3, .cls-4 {
        fill: none;
      }

      .cls-3 {
        stroke-linecap: round;
      }

      .cls-5 {
        clip-path: url(#clippath);
      }

      .cls-6 {
        fill: #ececec;
      }
    </style>
    <clipPath id="clippath">
      <circle class="cls-4" cx="750" cy="750" r="750"/>
    </clipPath>
  </defs>
  <g>
    <path class="cls-6" d="M750,1494.95c-100.57,0-198.13-19.7-289.97-58.54-88.71-37.52-168.38-91.23-236.79-159.65-68.42-68.42-122.13-148.08-159.65-236.79C24.75,948.13,5.05,850.57,5.05,750s19.7-198.13,58.54-289.97c37.52-88.71,91.23-168.38,159.65-236.79S371.33,101.11,460.03,63.59C551.87,24.75,649.43,5.05,750,5.05s198.13,19.7,289.97,58.54c88.71,37.52,168.38,91.23,236.79,159.65,68.42,68.42,122.13,148.08,159.65,236.79,38.84,91.84,58.54,189.4,58.54,289.97s-19.7,198.13-58.54,289.97c-37.52,88.71-91.23,168.38-159.65,236.79s-148.08,122.13-236.79,159.65c-91.84,38.84-189.4,58.54-289.97,58.54Z"/>
    <path class="cls-1" d="M750,10.11c99.89,0,196.79,19.56,288,58.14,43.84,18.54,86.12,41.49,125.68,68.22,39.18,26.47,76.03,56.87,109.51,90.35s63.88,70.33,90.35,109.51c26.72,39.55,49.67,81.84,68.22,125.68,38.58,91.21,58.14,188.11,58.14,288s-19.56,196.79-58.14,288c-18.54,43.84-41.49,86.12-68.22,125.68-26.47,39.18-56.87,76.03-90.35,109.51-33.48,33.48-70.33,63.88-109.51,90.35-39.55,26.72-81.84,49.67-125.68,68.22-91.21,38.58-188.11,58.14-288,58.14s-196.79-19.56-288-58.14c-43.84-18.54-86.12-41.49-125.68-68.22-39.18-26.47-76.03-56.87-109.51-90.35-33.48-33.48-63.88-70.33-90.35-109.51-26.72-39.55-49.67-81.84-68.22-125.68-38.58-91.21-58.14-188.11-58.14-288s19.56-196.79,58.14-288c18.54-43.84,41.49-86.12,68.22-125.68,26.47-39.18,56.87-76.03,90.35-109.51s70.33-63.88,109.51-90.35c39.55-26.72,81.84-49.67,125.68-68.22,91.21-38.58,188.11-58.14,288-58.14M750,0C335.79,0,0,335.79,0,750s335.79,750,750,750,750-335.79,750-750S1164.21,0,750,0h0Z"/>
  </g>
  <g class="cls-5">
    <g>
      <g>
        <path class="cls-1" d="M519.02,539.71c-11.62-6.15-27.2-7.59-38.92-1.11-6.63,3.86-10.49,10.86-13.14,17.93-5.36,14.95-3.86,31.86-.9,47.47,6.96,38.22,23.73,74,47.48,104.78,6.77,9.02,13.29,18.12,22.32,25.09-2.59-1.17-5.06-2.66-7.45-4.25-7.09-4.88-13.25-11.07-19.18-17.19-7.9-8.22-15.41-16.96-22.01-26.48-24.49-33.78-53.11-114.1-18.11-147.97,13.23-12.52,36.88-9.51,49.91,1.73h0Z"/>
        <path class="cls-1" d="M1017.67,586.28c9.8-2.93,21.31-3.37,30.05,2.83,6.69,4.86,10.05,12.79,12.59,20.35,7.41,22.78-.63,47.08-10.54,67.52-12.91,27.17-31.17,51.77-53.35,72.01-7.3,6.73-14.92,13.13-23.06,18.82,12.96-14.66,25.64-29.81,36.97-45.69,13.82-19.8,25.65-41.01,34.95-63.22,8.15-19.01,11.98-41.08,2.57-60.24-5.33-10.82-19.11-12.82-30.17-12.38h0Z"/>
        <path class="cls-1" d="M794.49,606.26c-.39,9.05-1.09,19-1.72,28.07-1.47,18.09-2.13,37.11,.38,55.02,1.51,11.16,3.9,22.77,6.08,34.01,1.47,7.58,2.65,15.63,.43,23.34-1.53,5.49-5.02,10.56-9.46,14.05-22.16,18-56.5,.78-58.49-24.79,.81,2.22,1.78,4.33,2.99,6.28,7.52,12.78,24.68,20.87,38.73,16.5,7.26-2.21,13.93-7.34,15.7-14.86,1.38-5.49,.08-12.39-1.12-18.32-2.37-11.55-4.57-23.2-5.48-35.12-1.16-14.35,.12-28.85,3.06-42.9,2.43-13.72,5.49-27.76,8.89-41.28h0Z"/>
        <path class="cls-2" d="M562.17,855.26c-2.56,15.51-5.65,33.82-8.73,47.31-4.35,19.01-13.75,50.56-14.38,70.05-.36,11.12,.48,20.96,2.69,31.36,3.1,14.57,47.93,63.07,61.87,75.61,28.69,25.81,76.76,81.51,164.22,71.93,37.47-4.11,82.91-23.37,110.35-68.23,5.57-9.11,18.58-40.08,20.43-50.59,5.66-32.07,2.02-63.16,.13-95.68"/>
        <path class="cls-2" d="M542.58,947.65c-37.08,33.1-71.07,103.68-60.64,152.27,5.11,23.81,16.24,45.82,26.07,68.1,15.8,35.8,80.6,109.35,95.97,126.54,1.79,2,4.88,2.12,6.82,.27,22.99-21.96,150.36-143.44,154.47-142.95,2.89,.34,162.68,78.77,226.66,102.16,3.54,1.29,7.15-1.72,6.52-5.43-6.46-38.23-28.06-170.07-69.54-235.91-7.52-11.94-18.36-21.07-27.96-31.19"/>
        <path class="cls-2" d="M490.72,1026.74c-39.47,14.34-79.84,28.19-118.17,45.4-36.02,16.17-73.68,29.23-109.83,45.48-71.34,32.07-139.2,69.42-204.8,111.91"/>
        <path class="cls-3" d="M233,1684.48s-32.84-168.14-57.07-239.6c-1.91-5.64-3.87-11.27-5.86-16.89-13.61-38.4-29.01-76.15-46.05-113.15-14.21-30.84-26.85-69.48-60.03-84.72-1.72-.79-3.7-1.59-5.44-.84-1.01,.43-1.74,1.32-2.42,2.18-43.12,54.66-53.86,131.86-71.82,197.28-11.9,43.62-23.94,87.2-35.91,130.8-11.3,41.17-28.55,131.28-28.55,131.28"/>
        <path class="cls-3" d="M930.24,1013.21c51.3,26.69,103.85,56.25,154.3,84.54,49.65,27.84,101.31,54.93,143.21,93.87,36.71,34.11,67.44,74.67,90.16,119.34,29.34,57.68,55.82,118.02,79.16,178.48,26.39,68.39,48.12,137.8,73.94,201.39"/>
        <path class="cls-2" d="M527.69,658.6c.24,20.39,2.63,40.69,5.02,60.94,8.2,69.58,18.63,144.17,66.21,195.6,16.47,17.8,36.61,31.8,57.34,44.37,30.45,18.46,66.19,36.34,102.71,35.97,30.86-.31,61.33-10.94,88.17-25.63,25.12-13.75,50.98-28.7,68.52-52,15.88-21.11,25.32-46.08,34.15-70.73,11.03-30.79,19.76-62.24,26.7-94.19,5.77-27.67,2.93-56.06,7.82-83.79,7.7-43.62,13.28-54.17,18-81.64,4.72-27.47,5.09-56.78-6.64-82.06-5.07-10.93-12.23-20.74-19.42-30.41-17.6-23.65-35.69-46.92-54.27-69.81-12.27-15.11-25.46-30.6-43.41-38.14-33.21-13.96-70.68-5.67-106.7-6.02-32.13-.31-64.65-5.84-95.63,2.72-25.21,6.96-44.06,27.9-58.46,49.74-14.39,21.84-26.06,45.82-44.28,64.59-6.88,7.09-14.73,13.49-19.64,22.07-12.88,22.52-6.73,32.07-18.03,73.82-7.46,27.59-8.49,55.9-8.16,84.61Z"/>
        <path class="cls-1" d="M818.78,608.16c14.5-12.25,30.26-24.11,48.76-29.92,18.88-6.23,40.65-4.75,57.64,5.65,11.32,6.71,20.6,16.71,25.67,28.37-15.96-18.52-39.15-30-63.35-28.49-24.97,1.26-46.13,14.55-68.72,24.39h0Z"/>
        <path class="cls-1" d="M582.23,599.39c22.54-22,54.54-33.26,85.82-34.08,14.98-.41,30.51,1.61,44.01,8.5,5.94,3.11,11.45,7.09,15.69,12.12-22.23-13.93-48.42-13.34-73.41-10.33-25.37,3.25-49.38,11.62-72.1,23.8h0Z"/>
        <path class="cls-1" d="M643.12,811.94c18.47,6.99,37.61,11.39,56.7,15.64,18.53,3.95,36.93,7.4,55.72,8.99,14.37,1.22,27.82,2.53,41.87,2.16,18.99-.47,37.87-4.62,57-7.46,5.01-.75,10.07-1.46,15.27-1.86-3.97,3.39-8.09,6.44-12.3,9.35-33.87,23.42-63.6,30.56-104.38,26.41-31.18-2.95-61.62-13.89-87.38-31.68-8.43-6.04-16.64-12.9-22.51-21.55h0Z"/>
        <path class="cls-1" d="M993.07,642.78c18.04,13.81,24.95,32.74,6.8,50.35-4.58,4.43-9.74,8.29-15.62,10.76,4.47-4.42,8.55-8.99,12.23-13.74,3.4-4.57,6.81-9.62,8.01-15.1,2.27-11.86-5.62-22.5-11.42-32.26h0Z"/>
        <path class="cls-1" d="M528.38,604.8c-7.71-.16-20.85,.95-25.56,7.45-2.66,4.42,.33,9.71,2.15,14.07,6.74,14.07,15.36,27.06,22.7,40.92-8.46-8.42-15.77-17.84-22.12-27.93-4.49-7.77-13.46-21.47-6.84-30,6.47-7.95,20.83-7.54,29.67-4.51h0Z"/>
      </g>
      <g>
        <path class="cls-1" d="M989.25,651.79c44.84-73.93,64.41-161.69,62.85-248.14-.43-23.62-6.05-55.76-24.85-70.06-27.18-20.68-64.7-7.09-64.7-7.09,0,0,5.51-46.19-20.88-72.58-31.52-31.52-73.55-52.22-117-62.18-41.67-9.55-87.46-9.82-129.71-3.46-52.53,7.91-105.27,28.68-143.05,67.01-30.74,31.18-45.53,52.4-56.04,117.17-15.21,93.71,27.86,185.94,33.74,248.5,0,0,55.78-187.71,141.49-220.45,36.83-14.07,101.62-38.22,166.82-21.85,61.37,15.41,99.57,66.52,141.74,151.45,18.58,37.43,9.94,63.39,12.87,104.92"/>
        <circle class="cls-1" cx="887.9" cy="598.87" r="19.41"/>
        <circle class="cls-1" cx="661.98" cy="587.4" r="18.86"/>
        <path class="cls-1" d="M941.51,563.8c-47.71-37.75-95.16-35.81-95.16-35.81v.05c-7.57,.47-13.59,6.75-13.59,14.45s6.49,14.5,14.5,14.5c2.73,0,5.27-.77,7.45-2.08v.02s.09-.06,.13-.1c.66-.41,1.28-.86,1.87-1.36,28.71-19.49,84.8,10.33,84.8,10.33Z"/>
        <path class="cls-1" d="M601.35,546.52c51.07-33.07,98.12-26.65,98.12-26.65l-.02,.04c7.51,1.18,12.9,8,12.17,15.67-.76,7.97-7.83,13.82-15.8,13.06-2.72-.26-5.17-1.26-7.22-2.77v.02s-.09-.07-.13-.11c-.62-.47-1.2-.97-1.73-1.53-26.74-22.11-85.39,2.27-85.39,2.27Z"/>
        <path class="cls-1" d="M757.54,1349.74c11.52,.24,35.12,.59,42.99,.7,1.54,.02,2.9-1.01,3.3-2.5l42.25-157.58-79.95-39.94-64.23,59.29s45.78,119.2,52.55,137.81c.47,1.31,1.7,2.18,3.08,2.21Z"/>
        <path class="cls-1" d="M757.69,1356.89l43.09,.45c1.4,.01,2.6,.98,2.92,2.34,6.79,29.33,65.84,296.84,71.52,331.14-58.65,2.36-200.75,.17-200.75,.17l80.24-331.79c.33-1.37,1.57-2.33,2.98-2.32Z"/>
      </g>
    </g>
  </g>
</svg>